<mxfile host="app.diagrams.net" modified="2020-12-03T05:14:24.685Z" agent="5.0 (Macintosh; Intel Mac OS X 10_15_6) AppleWebKit/605.1.15 (KHTML, like Gecko) Version/14.0.1 Safari/605.1.15" etag="Eo21wdRBRRydUwx8TqqW" version="13.10.6" type="github">
  <diagram id="S-Mc7KpMVxWA-386lXMZ" name="Page-1">
    <mxGraphModel dx="677" dy="988" grid="1" gridSize="10" guides="1" tooltips="1" connect="1" arrows="1" fold="1" page="1" pageScale="1" pageWidth="850" pageHeight="1100" math="0" shadow="0">
      <root>
        <mxCell id="0" />
        <mxCell id="1" parent="0" />
        <mxCell id="mQkKS2pTwM-4bz6a02_7-39" style="edgeStyle=orthogonalEdgeStyle;rounded=0;orthogonalLoop=1;jettySize=auto;html=1;startArrow=none;startFill=0;" parent="1" source="mQkKS2pTwM-4bz6a02_7-35" target="mQkKS2pTwM-4bz6a02_7-38" edge="1">
          <mxGeometry relative="1" as="geometry">
            <Array as="points">
              <mxPoint x="1001" y="170" />
              <mxPoint x="1001" y="170" />
            </Array>
          </mxGeometry>
        </mxCell>
        <mxCell id="mQkKS2pTwM-4bz6a02_7-35" value="https://brill.wtf/{short-link}" style="rounded=0;whiteSpace=wrap;html=1;" parent="1" vertex="1">
          <mxGeometry x="931.5" y="50" width="139" height="60" as="geometry" />
        </mxCell>
        <mxCell id="mQkKS2pTwM-4bz6a02_7-40" style="edgeStyle=orthogonalEdgeStyle;rounded=0;orthogonalLoop=1;jettySize=auto;html=1;startArrow=none;startFill=0;" parent="1" source="mQkKS2pTwM-4bz6a02_7-38" edge="1">
          <mxGeometry relative="1" as="geometry">
            <mxPoint x="916" y="420" as="targetPoint" />
            <Array as="points">
              <mxPoint x="1001" y="355" />
              <mxPoint x="916" y="355" />
            </Array>
          </mxGeometry>
        </mxCell>
        <mxCell id="mQkKS2pTwM-4bz6a02_7-38" value="is {short-link} in redis" style="html=1;whiteSpace=wrap;aspect=fixed;shape=isoRectangle;" parent="1" vertex="1">
          <mxGeometry x="926" y="200" width="150" height="90" as="geometry" />
        </mxCell>
        <mxCell id="mQkKS2pTwM-4bz6a02_7-41" value="yes" style="text;html=1;strokeColor=none;fillColor=none;align=center;verticalAlign=middle;whiteSpace=wrap;rounded=0;" parent="1" vertex="1">
          <mxGeometry x="936" y="335" width="40" height="20" as="geometry" />
        </mxCell>
        <mxCell id="mQkKS2pTwM-4bz6a02_7-42" style="edgeStyle=orthogonalEdgeStyle;rounded=0;orthogonalLoop=1;jettySize=auto;html=1;startArrow=none;startFill=0;" parent="1" edge="1">
          <mxGeometry relative="1" as="geometry">
            <mxPoint x="1075.99" y="420" as="targetPoint" />
            <mxPoint x="1000.9967114093961" y="290" as="sourcePoint" />
            <Array as="points">
              <mxPoint x="1000.99" y="355" />
              <mxPoint x="1075.99" y="355" />
              <mxPoint x="1075.99" y="420" />
            </Array>
          </mxGeometry>
        </mxCell>
        <mxCell id="mQkKS2pTwM-4bz6a02_7-43" value="no" style="text;html=1;strokeColor=none;fillColor=none;align=center;verticalAlign=middle;whiteSpace=wrap;rounded=0;" parent="1" vertex="1">
          <mxGeometry x="1026" y="335" width="40" height="20" as="geometry" />
        </mxCell>
        <mxCell id="mQkKS2pTwM-4bz6a02_7-44" value="navigate to stored url" style="rounded=0;whiteSpace=wrap;html=1;" parent="1" vertex="1">
          <mxGeometry x="876" y="420" width="80" height="45" as="geometry" />
        </mxCell>
        <mxCell id="mQkKS2pTwM-4bz6a02_7-46" style="edgeStyle=orthogonalEdgeStyle;rounded=0;orthogonalLoop=1;jettySize=auto;html=1;startArrow=none;startFill=0;" parent="1" source="mQkKS2pTwM-4bz6a02_7-45" edge="1">
          <mxGeometry relative="1" as="geometry">
            <mxPoint x="986" y="570" as="targetPoint" />
            <Array as="points">
              <mxPoint x="1076" y="520" />
              <mxPoint x="986" y="520" />
            </Array>
          </mxGeometry>
        </mxCell>
        <mxCell id="mQkKS2pTwM-4bz6a02_7-48" style="edgeStyle=orthogonalEdgeStyle;rounded=0;orthogonalLoop=1;jettySize=auto;html=1;entryX=0.5;entryY=1;entryDx=0;entryDy=0;startArrow=none;startFill=0;" parent="1" source="mQkKS2pTwM-4bz6a02_7-45" target="mQkKS2pTwM-4bz6a02_7-44" edge="1">
          <mxGeometry relative="1" as="geometry">
            <Array as="points">
              <mxPoint x="1076" y="520" />
              <mxPoint x="916" y="520" />
            </Array>
          </mxGeometry>
        </mxCell>
        <mxCell id="mQkKS2pTwM-4bz6a02_7-50" style="edgeStyle=orthogonalEdgeStyle;rounded=0;orthogonalLoop=1;jettySize=auto;html=1;startArrow=none;startFill=0;" parent="1" source="mQkKS2pTwM-4bz6a02_7-45" edge="1">
          <mxGeometry relative="1" as="geometry">
            <mxPoint x="1186" y="570" as="targetPoint" />
            <Array as="points">
              <mxPoint x="1076" y="520" />
              <mxPoint x="1186" y="520" />
            </Array>
          </mxGeometry>
        </mxCell>
        <mxCell id="mQkKS2pTwM-4bz6a02_7-45" value="is {short-link} in postgre" style="html=1;whiteSpace=wrap;aspect=fixed;shape=isoRectangle;" parent="1" vertex="1">
          <mxGeometry x="1016" y="415" width="120" height="72" as="geometry" />
        </mxCell>
        <mxCell id="mQkKS2pTwM-4bz6a02_7-47" value="yes" style="text;html=1;strokeColor=none;fillColor=none;align=center;verticalAlign=middle;whiteSpace=wrap;rounded=0;" parent="1" vertex="1">
          <mxGeometry x="1006" y="500" width="40" height="20" as="geometry" />
        </mxCell>
        <mxCell id="mQkKS2pTwM-4bz6a02_7-49" value="store in redis" style="rounded=0;whiteSpace=wrap;html=1;" parent="1" vertex="1">
          <mxGeometry x="946" y="570" width="90" height="50" as="geometry" />
        </mxCell>
        <mxCell id="mQkKS2pTwM-4bz6a02_7-51" value="no" style="text;html=1;strokeColor=none;fillColor=none;align=center;verticalAlign=middle;whiteSpace=wrap;rounded=0;" parent="1" vertex="1">
          <mxGeometry x="1106" y="500" width="40" height="20" as="geometry" />
        </mxCell>
        <mxCell id="mQkKS2pTwM-4bz6a02_7-52" value="404 page" style="rounded=0;whiteSpace=wrap;html=1;" parent="1" vertex="1">
          <mxGeometry x="1142" y="570" width="90" height="50" as="geometry" />
        </mxCell>
        <mxCell id="_URq81lUqFACoGSLNrR6-3" value="" style="edgeStyle=orthogonalEdgeStyle;rounded=0;orthogonalLoop=1;jettySize=auto;html=1;startArrow=none;startFill=0;" edge="1" parent="1" source="_URq81lUqFACoGSLNrR6-1" target="_URq81lUqFACoGSLNrR6-2">
          <mxGeometry relative="1" as="geometry" />
        </mxCell>
        <mxCell id="_URq81lUqFACoGSLNrR6-1" value="https://brill.wtf" style="rounded=0;whiteSpace=wrap;html=1;" vertex="1" parent="1">
          <mxGeometry x="1321" y="50" width="120" height="60" as="geometry" />
        </mxCell>
        <mxCell id="_URq81lUqFACoGSLNrR6-37" style="edgeStyle=orthogonalEdgeStyle;rounded=0;orthogonalLoop=1;jettySize=auto;html=1;startArrow=none;startFill=0;" edge="1" parent="1" source="_URq81lUqFACoGSLNrR6-2" target="_URq81lUqFACoGSLNrR6-29">
          <mxGeometry relative="1" as="geometry">
            <Array as="points">
              <mxPoint x="1381" y="270" />
              <mxPoint x="1381" y="270" />
            </Array>
          </mxGeometry>
        </mxCell>
        <mxCell id="_URq81lUqFACoGSLNrR6-2" value="Landing page to create link" style="rounded=0;whiteSpace=wrap;html=1;" vertex="1" parent="1">
          <mxGeometry x="1321" y="190" width="120" height="60" as="geometry" />
        </mxCell>
        <mxCell id="_URq81lUqFACoGSLNrR6-4" value="" style="aspect=fixed;html=1;points=[];align=center;image;fontSize=12;image=img/lib/mscae/Cache_Redis_Product.svg;" vertex="1" parent="1">
          <mxGeometry x="1076" y="224" width="50" height="42" as="geometry" />
        </mxCell>
        <mxCell id="_URq81lUqFACoGSLNrR6-5" value="" style="aspect=fixed;html=1;points=[];align=center;image;fontSize=12;image=img/lib/mscae/Cache_Redis_Product.svg;" vertex="1" parent="1">
          <mxGeometry x="1036" y="574" width="50" height="42" as="geometry" />
        </mxCell>
        <mxCell id="_URq81lUqFACoGSLNrR6-6" value="" style="outlineConnect=0;fontColor=#232F3E;gradientColor=none;fillColor=#3334B9;strokeColor=none;dashed=0;verticalLabelPosition=bottom;verticalAlign=top;align=center;html=1;fontSize=12;fontStyle=0;aspect=fixed;pointerEvents=1;shape=mxgraph.aws4.rds_postgresql_instance;" vertex="1" parent="1">
          <mxGeometry x="1136" y="429" width="44" height="44" as="geometry" />
        </mxCell>
        <mxCell id="_URq81lUqFACoGSLNrR6-10" style="edgeStyle=orthogonalEdgeStyle;rounded=0;orthogonalLoop=1;jettySize=auto;html=1;startArrow=none;startFill=0;" edge="1" parent="1" source="_URq81lUqFACoGSLNrR6-11">
          <mxGeometry relative="1" as="geometry">
            <mxPoint x="1391" y="692" as="targetPoint" />
            <Array as="points">
              <mxPoint x="1476" y="627" />
              <mxPoint x="1391" y="627" />
            </Array>
          </mxGeometry>
        </mxCell>
        <mxCell id="_URq81lUqFACoGSLNrR6-11" value="is {url} in redis" style="html=1;whiteSpace=wrap;aspect=fixed;shape=isoRectangle;" vertex="1" parent="1">
          <mxGeometry x="1401" y="472" width="150" height="90" as="geometry" />
        </mxCell>
        <mxCell id="_URq81lUqFACoGSLNrR6-12" value="yes" style="text;html=1;strokeColor=none;fillColor=none;align=center;verticalAlign=middle;whiteSpace=wrap;rounded=0;" vertex="1" parent="1">
          <mxGeometry x="1411" y="607" width="40" height="20" as="geometry" />
        </mxCell>
        <mxCell id="_URq81lUqFACoGSLNrR6-13" style="edgeStyle=orthogonalEdgeStyle;rounded=0;orthogonalLoop=1;jettySize=auto;html=1;startArrow=none;startFill=0;" edge="1" parent="1">
          <mxGeometry relative="1" as="geometry">
            <mxPoint x="1550.99" y="692" as="targetPoint" />
            <mxPoint x="1475.996711409396" y="562" as="sourcePoint" />
            <Array as="points">
              <mxPoint x="1475.99" y="627" />
              <mxPoint x="1550.99" y="627" />
              <mxPoint x="1550.99" y="692" />
            </Array>
          </mxGeometry>
        </mxCell>
        <mxCell id="_URq81lUqFACoGSLNrR6-14" value="no" style="text;html=1;strokeColor=none;fillColor=none;align=center;verticalAlign=middle;whiteSpace=wrap;rounded=0;" vertex="1" parent="1">
          <mxGeometry x="1501" y="607" width="40" height="20" as="geometry" />
        </mxCell>
        <mxCell id="_URq81lUqFACoGSLNrR6-15" value="return asc. short-link" style="rounded=0;whiteSpace=wrap;html=1;" vertex="1" parent="1">
          <mxGeometry x="1351" y="692" width="80" height="45" as="geometry" />
        </mxCell>
        <mxCell id="_URq81lUqFACoGSLNrR6-16" style="edgeStyle=orthogonalEdgeStyle;rounded=0;orthogonalLoop=1;jettySize=auto;html=1;startArrow=none;startFill=0;" edge="1" parent="1" source="_URq81lUqFACoGSLNrR6-19">
          <mxGeometry relative="1" as="geometry">
            <mxPoint x="1461" y="842" as="targetPoint" />
            <Array as="points">
              <mxPoint x="1551" y="792" />
              <mxPoint x="1461" y="792" />
            </Array>
          </mxGeometry>
        </mxCell>
        <mxCell id="_URq81lUqFACoGSLNrR6-17" style="edgeStyle=orthogonalEdgeStyle;rounded=0;orthogonalLoop=1;jettySize=auto;html=1;entryX=0.5;entryY=1;entryDx=0;entryDy=0;startArrow=none;startFill=0;" edge="1" parent="1" source="_URq81lUqFACoGSLNrR6-19" target="_URq81lUqFACoGSLNrR6-15">
          <mxGeometry relative="1" as="geometry">
            <Array as="points">
              <mxPoint x="1551" y="792" />
              <mxPoint x="1391" y="792" />
            </Array>
          </mxGeometry>
        </mxCell>
        <mxCell id="_URq81lUqFACoGSLNrR6-18" style="edgeStyle=orthogonalEdgeStyle;rounded=0;orthogonalLoop=1;jettySize=auto;html=1;startArrow=none;startFill=0;" edge="1" parent="1" source="_URq81lUqFACoGSLNrR6-19">
          <mxGeometry relative="1" as="geometry">
            <mxPoint x="1661" y="842" as="targetPoint" />
            <Array as="points">
              <mxPoint x="1551" y="792" />
              <mxPoint x="1661" y="792" />
            </Array>
          </mxGeometry>
        </mxCell>
        <mxCell id="_URq81lUqFACoGSLNrR6-19" value="is {url} in postgre" style="html=1;whiteSpace=wrap;aspect=fixed;shape=isoRectangle;" vertex="1" parent="1">
          <mxGeometry x="1491" y="687" width="120" height="72" as="geometry" />
        </mxCell>
        <mxCell id="_URq81lUqFACoGSLNrR6-20" value="yes" style="text;html=1;strokeColor=none;fillColor=none;align=center;verticalAlign=middle;whiteSpace=wrap;rounded=0;" vertex="1" parent="1">
          <mxGeometry x="1481" y="772" width="40" height="20" as="geometry" />
        </mxCell>
        <mxCell id="_URq81lUqFACoGSLNrR6-21" value="store in redis" style="rounded=0;whiteSpace=wrap;html=1;" vertex="1" parent="1">
          <mxGeometry x="1421" y="842" width="90" height="50" as="geometry" />
        </mxCell>
        <mxCell id="_URq81lUqFACoGSLNrR6-22" value="no" style="text;html=1;strokeColor=none;fillColor=none;align=center;verticalAlign=middle;whiteSpace=wrap;rounded=0;" vertex="1" parent="1">
          <mxGeometry x="1581" y="772" width="40" height="20" as="geometry" />
        </mxCell>
        <mxCell id="_URq81lUqFACoGSLNrR6-23" value="hash {url}, return asc. short-link,&lt;br&gt;store in redis and postgre" style="rounded=0;whiteSpace=wrap;html=1;" vertex="1" parent="1">
          <mxGeometry x="1617" y="842" width="90" height="90" as="geometry" />
        </mxCell>
        <mxCell id="_URq81lUqFACoGSLNrR6-24" value="" style="aspect=fixed;html=1;points=[];align=center;image;fontSize=12;image=img/lib/mscae/Cache_Redis_Product.svg;" vertex="1" parent="1">
          <mxGeometry x="1551" y="496" width="50" height="42" as="geometry" />
        </mxCell>
        <mxCell id="_URq81lUqFACoGSLNrR6-25" value="" style="aspect=fixed;html=1;points=[];align=center;image;fontSize=12;image=img/lib/mscae/Cache_Redis_Product.svg;" vertex="1" parent="1">
          <mxGeometry x="1511" y="846" width="50" height="42" as="geometry" />
        </mxCell>
        <mxCell id="_URq81lUqFACoGSLNrR6-26" value="" style="outlineConnect=0;fontColor=#232F3E;gradientColor=none;fillColor=#3334B9;strokeColor=none;dashed=0;verticalLabelPosition=bottom;verticalAlign=top;align=center;html=1;fontSize=12;fontStyle=0;aspect=fixed;pointerEvents=1;shape=mxgraph.aws4.rds_postgresql_instance;" vertex="1" parent="1">
          <mxGeometry x="1611" y="701" width="44" height="44" as="geometry" />
        </mxCell>
        <mxCell id="_URq81lUqFACoGSLNrR6-27" value="" style="outlineConnect=0;fontColor=#232F3E;gradientColor=none;fillColor=#3334B9;strokeColor=none;dashed=0;verticalLabelPosition=bottom;verticalAlign=top;align=center;html=1;fontSize=12;fontStyle=0;aspect=fixed;pointerEvents=1;shape=mxgraph.aws4.rds_postgresql_instance;" vertex="1" parent="1">
          <mxGeometry x="1707" y="842" width="44" height="44" as="geometry" />
        </mxCell>
        <mxCell id="_URq81lUqFACoGSLNrR6-28" value="" style="aspect=fixed;html=1;points=[];align=center;image;fontSize=12;image=img/lib/mscae/Cache_Redis_Product.svg;" vertex="1" parent="1">
          <mxGeometry x="1707" y="889" width="50" height="42" as="geometry" />
        </mxCell>
        <mxCell id="_URq81lUqFACoGSLNrR6-30" style="edgeStyle=orthogonalEdgeStyle;rounded=0;orthogonalLoop=1;jettySize=auto;html=1;startArrow=none;startFill=0;" edge="1" parent="1" source="_URq81lUqFACoGSLNrR6-29" target="_URq81lUqFACoGSLNrR6-11">
          <mxGeometry relative="1" as="geometry">
            <Array as="points">
              <mxPoint x="1381" y="432" />
              <mxPoint x="1476" y="432" />
            </Array>
          </mxGeometry>
        </mxCell>
        <mxCell id="_URq81lUqFACoGSLNrR6-29" value="is {url} valid" style="html=1;whiteSpace=wrap;aspect=fixed;shape=isoRectangle;" vertex="1" parent="1">
          <mxGeometry x="1306" y="297" width="150" height="90" as="geometry" />
        </mxCell>
        <mxCell id="_URq81lUqFACoGSLNrR6-31" value="yes" style="text;html=1;strokeColor=none;fillColor=none;align=center;verticalAlign=middle;whiteSpace=wrap;rounded=0;" vertex="1" parent="1">
          <mxGeometry x="1411" y="412" width="40" height="20" as="geometry" />
        </mxCell>
        <mxCell id="_URq81lUqFACoGSLNrR6-33" style="edgeStyle=orthogonalEdgeStyle;rounded=0;orthogonalLoop=1;jettySize=auto;html=1;startArrow=none;startFill=0;" edge="1" parent="1">
          <mxGeometry relative="1" as="geometry">
            <mxPoint x="1379.9985714285715" y="387" as="sourcePoint" />
            <mxPoint x="1320" y="472" as="targetPoint" />
            <Array as="points">
              <mxPoint x="1380" y="432" />
              <mxPoint x="1320" y="432" />
            </Array>
          </mxGeometry>
        </mxCell>
        <mxCell id="_URq81lUqFACoGSLNrR6-34" value="no" style="text;html=1;strokeColor=none;fillColor=none;align=center;verticalAlign=middle;whiteSpace=wrap;rounded=0;" vertex="1" parent="1">
          <mxGeometry x="1330" y="412" width="40" height="20" as="geometry" />
        </mxCell>
        <mxCell id="_URq81lUqFACoGSLNrR6-35" value="400" style="rounded=0;whiteSpace=wrap;html=1;" vertex="1" parent="1">
          <mxGeometry x="1281" y="474" width="80" height="45" as="geometry" />
        </mxCell>
      </root>
    </mxGraphModel>
  </diagram>
</mxfile>
